<svg width="35" height="35" viewBox="0 0 35 35" fill="none" xmlns="http://www.w3.org/2000/svg"><path fill-rule="evenodd" clip-rule="evenodd" d="M30.122 20.19c1.162 1.134 2.387 2.2 3.428 3.448.46.555.896 1.127 1.229 1.77.472.915.044 1.922-.776 1.977l-5.099-.003c-1.315.11-2.364-.42-3.246-1.32-.706-.718-1.36-1.484-2.039-2.227-.278-.304-.57-.59-.917-.816-.696-.451-1.3-.313-1.698.413-.405.738-.497 1.556-.537 2.379-.055 1.2-.418 1.516-1.624 1.571-2.577.122-5.023-.268-7.296-1.569-2.003-1.146-3.557-2.764-4.91-4.596C4.006 17.65 1.99 13.73.178 9.7c-.408-.908-.11-1.395.892-1.412 1.663-.033 3.326-.03 4.992-.003.676.01 1.123.398 1.385 1.037.9 2.213 2 4.318 3.383 6.27.368.519.743 1.039 1.278 1.404.591.405 1.041.27 1.32-.388.176-.417.253-.867.293-1.315.132-1.539.15-3.075-.082-4.608-.142-.958-.68-1.577-1.636-1.758-.487-.093-.415-.274-.179-.552.41-.48.796-.779 1.564-.779h5.762c.908.18 1.11.587 1.233 1.5l.005 6.4c-.01.354.177 1.403.813 1.637.51.166.846-.241 1.151-.564 1.38-1.465 2.365-3.195 3.244-4.987.39-.788.726-1.606 1.052-2.424.24-.607.619-.905 1.302-.892l5.546.005c.165 0 .331.002.49.03.935.159 1.191.56.903 1.473-.455 1.432-1.34 2.625-2.205 3.824-.925 1.28-1.914 2.516-2.832 3.803-.842 1.176-.775 1.768.271 2.79z" fill="#000"/></svg>